# xmcd CD database file
#
# Track frame offsets:
#	150
#	23534
#	40957
#	58483
#	75017
#	94052
#	113384
#	132591
#	147614
#	165313
#	187642
#	204112
#
# Disc length: 2996 seconds
#
# Revision: 0
# Processed by: cddbd v1.5.2PL0 Copyright (c) Steve Scherf et al.
# Submitted via: jetAudio 7
#
DISCID=8d0bb20c
DTITLE=Hồ Quỳnh Hương - Anh - Vol 7
DYEAR=1900
DGENRE=Pop
TTITLE0=Anh
TTITLE1=Em Nhớ Anh Vô Cùng
TTITLE2=Tôi Đã Biết Yêu
TTITLE3=Vì Yêu Anh
TTITLE4=Xa Mãi Tình Đầu
TTITLE5=Tình Yêu Mãi Mãi
TTITLE6=Trong Cô Đơn
TTITLE7=Tình Nồng Không Phai
TTITLE8=Giấc Mơ Đi Qua
TTITLE9=Quỳnh
TTITLE10=Bông Hoa Xinh
TTITLE11=Khi Em Có Anh
EXTD=
EXTT0=
EXTT1=
EXTT2=
EXTT3=
EXTT4=
EXTT5=
EXTT6=
EXTT7=
EXTT8=
EXTT9=
EXTT10=
EXTT11=
PLAYORDER=
